<svg width="24" height="25" viewBox="0 0 24 25" fill="none" xmlns="http://www.w3.org/2000/svg">
<g id="google 1" clip-path="url(#clip0_838_3855)">
<path id="Vector" d="M23.0961 10.167L13.4533 10.1665C13.0275 10.1665 12.6823 10.5116 12.6823 10.9374V14.0179C12.6823 14.4436 13.0275 14.7888 13.4532 14.7888H18.8835C18.2888 16.3319 17.179 17.6243 15.7631 18.4454L18.0785 22.4537C21.7928 20.3055 23.9887 16.5365 23.9887 12.3173C23.9887 11.7165 23.9444 11.287 23.8559 10.8035C23.7885 10.4361 23.4696 10.167 23.0961 10.167Z" fill="#167EE6"/>
<path id="Vector_2" d="M12.1677 19.4174C9.51024 19.4174 7.19031 17.9655 5.94433 15.8169L1.93622 18.1271C3.97592 21.6622 7.79694 24.0428 12.1677 24.0428C14.3118 24.0428 16.335 23.4655 18.0779 22.4594V22.4539L15.7624 18.4456C14.7033 19.0599 13.4777 19.4174 12.1677 19.4174Z" fill="#12B347"/>
<path id="Vector_3" d="M18.0791 22.4591V22.4536L15.7637 18.4453C14.7045 19.0596 13.479 19.4171 12.1689 19.4171V24.0425C14.3131 24.0425 16.3364 23.4652 18.0791 22.4591Z" fill="#0F993E"/>
<path id="Vector_4" d="M4.97399 12.2221C4.97399 10.9122 5.33146 9.68669 5.94561 8.62761L1.9375 6.31738C0.92589 8.05474 0.348633 10.0724 0.348633 12.2221C0.348633 14.3717 0.92589 16.3894 1.9375 18.1267L5.94561 15.8165C5.33146 14.7574 4.97399 13.5319 4.97399 12.2221Z" fill="#FFD500"/>
<path id="Vector_5" d="M12.1677 5.02721C13.9006 5.02721 15.4924 5.64298 16.7357 6.66724C17.0424 6.9199 17.4882 6.90166 17.7692 6.6207L19.9518 4.43809C20.2706 4.11931 20.2479 3.5975 19.9073 3.30209C17.8242 1.49491 15.1139 0.401855 12.1677 0.401855C7.79694 0.401855 3.97592 2.78241 1.93622 6.31752L5.94433 8.62775C7.19031 6.47917 9.51024 5.02721 12.1677 5.02721Z" fill="#FE724C"/>
<path id="Vector_6" d="M16.737 6.66724C17.0437 6.9199 17.4895 6.90166 17.7705 6.62069L19.9531 4.43809C20.2718 4.11931 20.2491 3.5975 19.9086 3.30209C17.8255 1.49487 15.1151 0.401855 12.1689 0.401855V5.02721C13.9018 5.02721 15.4937 5.64298 16.737 6.66724Z" fill="#D93F21"/>
</g>
<defs>
<clipPath id="clip0_838_3855">
<rect width="23.6407" height="23.6407" fill="white" transform="translate(0.347961 0.401855)"/>
</clipPath>
</defs>
</svg>
