<svg width="35" height="24" viewBox="0 0 35 24" fill="none" xmlns="http://www.w3.org/2000/svg">
<g id="Icon">
<path id="Vector" d="M18.7863 13.1338L13.3954 22.3667L8.00448 13.1338H18.7863ZM20.2305 12.3086H6.55444L13.3954 23.9998L20.2305 12.3086Z" fill="white"/>
<path id="Vector_2" d="M28.1591 1.65038L33.55 10.8833H22.7681L28.1591 1.65038ZM28.1591 0L21.3181 11.6912H35L28.1591 0Z" fill="white"/>
<path id="Vector_3" d="M0 0L5.7359 10.3409L12.0038 0.259661L0 0Z" fill="#F44464"/>
<path id="Vector_4" d="M13.3955 0.90625L19.4121 11.1894H7.36728L13.3955 0.90625Z" fill="#F44464"/>
<path id="Vector_5" d="M20.9615 13.4336L26.9839 23.9995H14.6526L20.7744 13.4336H20.9615Z" fill="#F44464"/>
<path id="Vector_6" d="M22.2653 12.793L28.1591 23.1973L34.1347 12.793H22.2653Z" fill="#F44464"/>
</g>
</svg>
