<svg width="24" height="24" viewBox="0 0 24 24" fill="none" xmlns="http://www.w3.org/2000/svg">
<g id="round-phone-24px">
<g id="Rounded_1_">
<path id="Path" fill-rule="evenodd" clip-rule="evenodd" d="M19.23 15.2598L16.69 14.9698C16.08 14.8998 15.48 15.1098 15.05 15.5398L13.21 17.3798C10.38 15.9398 8.05999 13.6298 6.61999 10.7898L8.47 8.93977C8.89999 8.50977 9.10999 7.90977 9.03999 7.29977L8.74999 4.77977C8.62999 3.76977 7.77999 3.00977 6.75999 3.00977H5.02999C3.89999 3.00977 2.95999 3.94977 3.02999 5.07977C3.55999 13.6198 10.39 20.4398 18.92 20.9698C20.05 21.0398 20.99 20.0998 20.99 18.9698V17.2398C21 16.2298 20.24 15.3798 19.23 15.2598Z" fill="#F44464"/>
</g>
</g>
</svg>
