<svg width="20" height="20" viewBox="0 0 20 20" fill="none" xmlns="http://www.w3.org/2000/svg">
<g id="radio_button_checked_FILL0_wght400_GRAD0_opsz20 1">
<path id="Vector" d="M10.0047 14C11.1127 14 12.0556 13.6095 12.8333 12.8286C13.6111 12.0477 14 11.1033 14 9.99529C14 8.88732 13.6095 7.94444 12.8286 7.16667C12.0477 6.38889 11.1033 6 9.99529 6C8.88732 6 7.94444 6.39046 7.16667 7.17138C6.38889 7.95229 6 8.89674 6 10.0047C6 11.1127 6.39046 12.0556 7.17138 12.8333C7.95229 13.6111 8.89674 14 10.0047 14ZM10.0058 18C8.90469 18 7.86806 17.7917 6.89583 17.375C5.92361 16.9583 5.07292 16.3854 4.34375 15.6562C3.61458 14.9271 3.04167 14.0767 2.625 13.105C2.20833 12.1334 2 11.0952 2 9.99046C2 8.88571 2.20833 7.85069 2.625 6.88542C3.04167 5.92014 3.61458 5.07292 4.34375 4.34375C5.07292 3.61458 5.92332 3.04167 6.89496 2.625C7.86661 2.20833 8.90481 2 10.0095 2C11.1143 2 12.1493 2.20833 13.1146 2.625C14.0799 3.04167 14.9271 3.61458 15.6562 4.34375C16.3854 5.07292 16.9583 5.92169 17.375 6.89008C17.7917 7.85849 18 8.89321 18 9.99425C18 11.0953 17.7917 12.1319 17.375 13.1042C16.9583 14.0764 16.3854 14.9271 15.6562 15.6562C14.9271 16.3854 14.0783 16.9583 13.1099 17.375C12.1415 17.7917 11.1068 18 10.0058 18ZM10 16.5C11.8056 16.5 13.3403 15.8681 14.6042 14.6042C15.8681 13.3403 16.5 11.8056 16.5 10C16.5 8.19444 15.8681 6.65972 14.6042 5.39583C13.3403 4.13194 11.8056 3.5 10 3.5C8.19444 3.5 6.65972 4.13194 5.39583 5.39583C4.13194 6.65972 3.5 8.19444 3.5 10C3.5 11.8056 4.13194 13.3403 5.39583 14.6042C6.65972 15.8681 8.19444 16.5 10 16.5Z" fill="#F44464"/>
</g>
</svg>
