<svg width="136" height="98" viewBox="0 0 136 98" fill="none" xmlns="http://www.w3.org/2000/svg">
<g id="undraw_save_to_bookmarks_re_8ajf 1" clip-path="url(#clip0_1512_12047)">
<path id="Vector" d="M106.889 8.81797C106.546 6.30557 106.115 3.60814 104.337 1.79449C103.774 1.21903 103.099 0.76338 102.353 0.455025C101.608 0.14667 100.808 -0.00800768 100.001 0.000319181C99.194 0.00864605 98.3972 0.179806 97.6584 0.503477C96.9197 0.827147 96.2543 1.29663 95.7025 1.88361C94.4088 3.25968 93.8375 5.1919 93.7852 7.0773C93.7329 8.96269 94.154 10.8272 94.6212 12.6549C97.0936 12.7041 99.5477 12.2225 101.817 11.2427C102.373 10.972 102.95 10.7462 103.542 10.5673C104.142 10.4152 104.569 10.798 105.127 11.065L105.433 10.4805C105.683 10.9455 106.459 10.8077 106.741 10.3606C107.022 9.91354 106.961 9.34097 106.889 8.81797Z" fill="#2F2E41"/>
<path id="Vector_2" d="M96.5627 19.4261L97.2786 15.7799L91.911 13.4629L82.315 8.87911C82.2481 8.45377 82.0533 8.0587 81.7563 7.74615C81.4594 7.43361 81.0742 7.21833 80.6519 7.12878C80.2295 7.03923 79.7898 7.07963 79.391 7.24465C78.9922 7.40967 78.653 7.69152 78.4183 8.05292C78.1837 8.41432 78.0646 8.83825 78.0768 9.26861C78.089 9.69897 78.232 10.1155 78.4868 10.4631C78.7416 10.8107 79.0962 11.0729 79.5038 11.2152C79.9113 11.3574 80.3526 11.373 80.7692 11.2597L89.906 16.8818L96.5627 19.4261Z" fill="#FFABBA"/>
<path id="Vector_3" d="M92.9595 18.8091L96.8471 14.8466L96.924 14.8699C96.9723 14.8845 101.803 16.3527 104.882 17.8447C105.23 18.0005 105.54 18.2301 105.79 18.5175C106.039 18.8049 106.224 19.1432 106.329 19.5088C106.482 20.0207 106.482 20.5661 106.329 21.078C106.176 21.5899 105.876 22.046 105.466 22.3904C105.045 22.7662 104.524 23.0132 103.966 23.1018C103.408 23.1904 102.836 23.1169 102.319 22.89L92.9595 18.8091Z" fill="#F44464"/>
<path id="Vector_4" d="M92.9475 36.2303L103.879 39.143L106.087 28.8461L96.0531 25.7494L92.9475 36.2303Z" fill="#FFABBA"/>
<path id="Vector_5" d="M105.103 33.4356L94.4241 30.9869L92.3791 26.0451C92.2126 25.3396 92.253 24.6014 92.4955 23.9183C92.7379 23.2351 93.1721 22.6358 93.7465 22.1917L97.6482 18.9073L99.7399 16.2431L99.5122 14.8313C99.4714 14.5491 99.5308 14.2616 99.6801 14.0185C99.8294 13.7754 100.059 13.5919 100.33 13.4997L103.117 12.5029C103.426 12.388 103.766 12.3942 104.07 12.5202C104.374 12.6461 104.618 12.8825 104.754 13.1814L105.049 13.8631C105.049 13.8631 106.31 14.4545 107.02 14.7872C107.386 14.953 107.713 15.1939 107.978 15.4942C108.244 15.7946 108.444 16.1475 108.563 16.5299C109.651 20.035 109.358 23.8217 107.743 27.1188L105.103 33.4356Z" fill="#F44464"/>
<path id="Vector_6" d="M10.1299 85.8949L4.96644 84.5173C4.20723 81.8226 4.1192 78.9839 4.71001 76.2477C6.96268 80.6876 13.0126 81.5247 16.5967 84.9871C17.7062 86.0755 18.5558 87.3989 19.0826 88.8592C19.6095 90.3195 19.8 91.8794 19.64 93.4231L20.8769 96.996C18.3662 96.897 15.9069 96.2565 13.6684 95.1185C11.4299 93.9806 9.46542 92.3723 7.91033 90.4045C7.04889 89.2919 6.3314 88.0756 5.77479 86.7843C7.93538 86.4687 10.1299 85.8949 10.1299 85.8949Z" fill="#F2F2F2"/>
<path id="Vector_7" d="M74.2797 98.0001H23.6711C22.3148 97.9985 21.0145 97.4606 20.0555 96.5044C19.0964 95.5481 18.557 94.2516 18.5554 92.8993V26.084C18.557 24.7317 19.0964 23.4352 20.0555 22.4789C21.0145 21.5227 22.3148 20.9848 23.6711 20.9833H74.2797C75.636 20.9848 76.9363 21.5227 77.8954 22.4789C78.8544 23.4352 79.3939 24.7317 79.3954 26.084V92.8993C79.3939 94.2516 78.8544 95.5481 77.8954 96.5044C76.9363 97.4606 75.636 97.9985 74.2797 98.0001Z" fill="#E6E6E6"/>
<path id="Vector_8" d="M54.9639 93.8643H27.2286C25.9936 93.8629 24.8096 93.3731 23.9364 92.5024C23.0631 91.6317 22.5719 90.4512 22.5706 89.2198V29.7634C22.5719 28.532 23.0631 27.3515 23.9364 26.4809C24.8096 25.6102 25.9936 25.1204 27.2286 25.119H70.7223C71.9573 25.1204 73.1412 25.6102 74.0145 26.4809C74.8877 27.3515 75.3789 28.532 75.3803 29.7634V73.5077C75.3742 78.9047 73.2212 84.079 69.3937 87.8952C65.5662 91.7115 60.3768 93.8582 54.9639 93.8643Z" fill="white"/>
<path id="Vector_9" d="M66.3835 36.5336H31.5673C31.4182 36.5338 31.2705 36.5047 31.1327 36.4479C30.9948 36.3912 30.8696 36.308 30.764 36.203C30.6584 36.098 30.5746 35.9733 30.5174 35.836C30.4602 35.6987 30.4306 35.5515 30.4304 35.4028C30.4302 35.2542 30.4594 35.1069 30.5163 34.9695C30.5732 34.8321 30.6567 34.7071 30.762 34.6019C30.8673 34.4966 30.9924 34.4131 31.1301 34.356C31.2677 34.2989 31.4154 34.2695 31.5645 34.2693H66.3835C66.6846 34.2689 66.9736 34.3878 67.1868 34.5999C67.4 34.8119 67.52 35.0998 67.5204 35.4C67.5207 35.7003 67.4015 35.9884 67.1888 36.201C66.9761 36.4136 66.6875 36.5332 66.3863 36.5336H66.3835Z" fill="#F44464"/>
<path id="Vector_10" d="M66.3836 41.0072H31.5674C31.2663 41.0072 30.9774 40.8879 30.7645 40.6756C30.5515 40.4633 30.4319 40.1753 30.4319 39.875C30.4319 39.5747 30.5515 39.2867 30.7645 39.0744C30.9774 38.8621 31.2663 38.7428 31.5674 38.7428H66.3836C66.6847 38.7428 66.9736 38.8621 67.1865 39.0744C67.3995 39.2867 67.5191 39.5747 67.5191 39.875C67.5191 40.1753 67.3995 40.4633 67.1865 40.6756C66.9736 40.8879 66.6847 41.0072 66.3836 41.0072Z" fill="#F44464"/>
<path id="Vector_11" d="M46.6594 45.4808H31.5674C31.2663 45.4808 30.9774 45.3615 30.7645 45.1492C30.5515 44.9369 30.4319 44.6489 30.4319 44.3486C30.4319 44.0484 30.5515 43.7604 30.7645 43.548C30.9774 43.3357 31.2663 43.2164 31.5674 43.2164H46.6594C46.9606 43.2164 47.2494 43.3357 47.4623 43.548C47.6753 43.7604 47.7949 44.0484 47.7949 44.3486C47.7949 44.6489 47.6753 44.9369 47.4623 45.1492C47.2494 45.3615 46.9606 45.4808 46.6594 45.4808Z" fill="#F44464"/>
<path id="Vector_12" d="M66.3835 54.8505H31.5673C31.2662 54.8508 30.9772 54.7319 30.764 54.5199C30.5508 54.3078 30.4308 54.02 30.4304 53.7197C30.43 53.4195 30.5493 53.1314 30.762 52.9188C30.9747 52.7062 31.2633 52.5866 31.5645 52.5862H66.3835C66.6846 52.5858 66.9736 52.7047 67.1868 52.9168C67.4 53.1288 67.52 53.4166 67.5204 53.7169C67.5207 54.0172 67.4015 54.3053 67.1888 54.5179C66.9761 54.7304 66.6875 54.8501 66.3863 54.8505H66.3835Z" fill="#E4E4E4"/>
<path id="Vector_13" d="M66.3836 59.3241H31.5674C31.2663 59.3241 30.9774 59.2048 30.7645 58.9925C30.5515 58.7802 30.4319 58.4922 30.4319 58.1919C30.4319 57.8916 30.5515 57.6036 30.7645 57.3913C30.9774 57.179 31.2663 57.0597 31.5674 57.0597H66.3836C66.6847 57.0597 66.9736 57.179 67.1865 57.3913C67.3995 57.6036 67.5191 57.8916 67.5191 58.1919C67.5191 58.4922 67.3995 58.7802 67.1865 58.9925C66.9736 59.2048 66.6847 59.3241 66.3836 59.3241Z" fill="#E4E4E4"/>
<path id="Vector_14" d="M46.6594 63.7977H31.5674C31.2663 63.7977 30.9774 63.6784 30.7645 63.4661C30.5515 63.2538 30.4319 62.9658 30.4319 62.6655C30.4319 62.3652 30.5515 62.0773 30.7645 61.8649C30.9774 61.6526 31.2663 61.5333 31.5674 61.5333H46.6594C46.9606 61.5333 47.2494 61.6526 47.4623 61.8649C47.6753 62.0773 47.7949 62.3652 47.7949 62.6655C47.7949 62.9658 47.6753 63.2538 47.4623 63.4661C47.2494 63.6784 46.9606 63.7977 46.6594 63.7977Z" fill="#E4E4E4"/>
<path id="Vector_15" d="M66.3835 73.1672H31.5673C31.2662 73.1676 30.9772 73.0487 30.764 72.8366C30.5508 72.6246 30.4308 72.3368 30.4304 72.0365C30.43 71.7362 30.5493 71.4481 30.762 71.2355C30.9747 71.023 31.2633 70.9033 31.5645 70.903H66.3835C66.6846 70.9026 66.9736 71.0215 67.1868 71.2335C67.4 71.4456 67.52 71.7334 67.5204 72.0337C67.5207 72.3339 67.4015 72.622 67.1888 72.8346C66.9761 73.0472 66.6875 73.1669 66.3863 73.1672H66.3835Z" fill="#E4E4E4"/>
<path id="Vector_16" d="M66.3836 77.641H31.5674C31.2663 77.641 30.9774 77.5217 30.7645 77.3094C30.5515 77.097 30.4319 76.8091 30.4319 76.5088C30.4319 76.2085 30.5515 75.9205 30.7645 75.7082C30.9774 75.4959 31.2663 75.3766 31.5674 75.3766H66.3836C66.6847 75.3766 66.9736 75.4959 67.1865 75.7082C67.3995 75.9205 67.5191 76.2085 67.5191 76.5088C67.5191 76.8091 67.3995 77.097 67.1865 77.3094C66.9736 77.5217 66.6847 77.641 66.3836 77.641Z" fill="#E4E4E4"/>
<path id="Vector_17" d="M46.6594 82.1146H31.5674C31.2667 82.1141 30.9784 81.9945 30.7659 81.7822C30.5534 81.57 30.4341 81.2823 30.4341 80.9824C30.4341 80.6825 30.5534 80.3949 30.7659 80.1826C30.9784 79.9703 31.2667 79.8508 31.5674 79.8502H46.6594C46.9602 79.8508 47.2485 79.9703 47.4609 80.1826C47.6734 80.3949 47.7928 80.6825 47.7928 80.9824C47.7928 81.2823 47.6734 81.57 47.4609 81.7822C47.2485 81.9945 46.9602 82.1141 46.6594 82.1146Z" fill="#E4E4E4"/>
<path id="Vector_18" d="M76.8964 37.0011C85.049 37.0011 91.658 30.4115 91.658 22.2827C91.658 14.154 85.049 7.56433 76.8964 7.56433C68.7438 7.56433 62.1348 14.154 62.1348 22.2827C62.1348 30.4115 68.7438 37.0011 76.8964 37.0011Z" fill="#F44464"/>
<path id="Vector_19" opacity="0.16" d="M76.8964 34.9621C73.1618 34.9616 69.5662 33.5496 66.8344 31.0105C64.1025 28.4715 62.4376 24.9943 62.1752 21.2798C62.1513 21.6224 62.1348 21.9671 62.1348 22.3158C62.1362 26.2185 63.6921 29.9607 66.4603 32.7197C69.2285 35.4788 72.9823 37.0287 76.8964 37.0287C80.8104 37.0287 84.5643 35.4788 87.3325 32.7197C90.1006 29.9607 91.6565 26.2185 91.658 22.3158C91.658 21.9671 91.6415 21.6224 91.6175 21.2798C91.3551 24.9943 89.6902 28.4715 86.9584 31.0105C84.2266 33.5496 80.631 34.9616 76.8964 34.9621Z" fill="#231F20"/>
<path id="Vector_20" d="M76.8966 29.4752C76.4064 29.4746 75.9365 29.2803 75.5899 28.9347C75.2434 28.5891 75.0484 28.1206 75.0479 27.6319V16.9665C75.0476 16.7243 75.0952 16.4844 75.188 16.2606C75.2808 16.0367 75.4169 15.8333 75.5886 15.6619C75.7603 15.4905 75.9642 15.3546 76.1886 15.2618C76.413 15.1691 76.6536 15.1213 76.8965 15.1213C77.1394 15.1213 77.38 15.1691 77.6044 15.2618C77.8288 15.3546 78.0327 15.4905 78.2044 15.6619C78.3761 15.8333 78.5122 16.0367 78.605 16.2606C78.6978 16.4844 78.7454 16.7243 78.7451 16.9665V27.6319C78.7446 28.1206 78.5497 28.5891 78.2031 28.9347C77.8566 29.2802 77.3867 29.4746 76.8966 29.4752Z" fill="white"/>
<path id="Vector_21" d="M69.6995 22.2993C69.7 21.8106 69.895 21.3421 70.2416 20.9966C70.5881 20.651 71.058 20.4566 71.5482 20.4561H82.2449C82.4878 20.4558 82.7284 20.5033 82.9529 20.5958C83.1774 20.6883 83.3815 20.824 83.5533 20.9952C83.7252 21.1664 83.8616 21.3697 83.9546 21.5935C84.0476 21.8172 84.0955 22.0571 84.0955 22.2993C84.0955 22.5415 84.0476 22.7814 83.9546 23.0051C83.8616 23.2289 83.7252 23.4322 83.5533 23.6033C83.3815 23.7745 83.1774 23.9103 82.9529 24.0028C82.7284 24.0953 82.4878 24.1428 82.2449 24.1425H71.5482C71.058 24.142 70.5881 23.9476 70.2416 23.6021C69.895 23.2565 69.7 22.788 69.6995 22.2993Z" fill="white"/>
<path id="Vector_22" d="M99.0867 25.4267L95.9455 23.428L91.8185 27.5606L84.0282 34.7871C83.6067 34.6935 83.1666 34.7296 82.7662 34.8908C82.3658 35.052 82.024 35.3306 81.7858 35.6897C81.5476 36.0488 81.4244 36.4716 81.4325 36.902C81.4406 37.3325 81.5795 37.7504 81.8309 38.1004C82.0824 38.4504 82.4344 38.7161 82.8406 38.8622C83.2467 39.0084 83.6878 39.0282 84.1055 38.919C84.5232 38.8097 84.8977 38.5767 85.1797 38.2506C85.4616 37.9245 85.6376 37.5207 85.6844 37.0927L94.2757 30.6723L99.0867 25.4267Z" fill="#FFABBA"/>
<path id="Vector_23" d="M97.1924 28.5443L94.9167 23.4868L94.9666 23.424C94.9979 23.3846 98.1361 19.4398 100.656 17.1287C100.928 16.8627 101.256 16.6593 101.616 16.5326C101.975 16.4059 102.359 16.359 102.738 16.3951C103.272 16.4404 103.781 16.6401 104.203 16.9696C104.624 17.2992 104.94 17.7442 105.112 18.2503C105.309 18.7785 105.349 19.352 105.227 19.9023C105.106 20.4525 104.828 20.9562 104.427 21.3532L97.1924 28.5443Z" fill="#F44464"/>
<path id="Vector_24" d="M99.2482 11.9209C101.976 11.9209 104.187 9.71639 104.187 6.99701C104.187 4.27762 101.976 2.07312 99.2482 2.07312C96.5208 2.07312 94.3098 4.27762 94.3098 6.99701C94.3098 9.71639 96.5208 11.9209 99.2482 11.9209Z" fill="#FFABBA"/>
<path id="Vector_25" d="M91.5759 94.4732H89.5344L88.5627 86.6219H91.5759V94.4732Z" fill="#FFABBA"/>
<path id="Vector_26" d="M92.6533 98H91.1892L90.9279 96.6218L90.2586 98H86.3756C86.1895 98 86.0082 97.9407 85.8583 97.8307C85.7084 97.7207 85.5976 97.5658 85.5422 97.3887C85.4868 97.2115 85.4897 97.0213 85.5504 96.8459C85.6111 96.6704 85.7264 96.5189 85.8796 96.4135L88.9805 94.2782V92.8849L92.242 93.079L92.6533 98Z" fill="#2F2E41"/>
<path id="Vector_27" d="M117.163 92.7439L115.266 93.4968L111.451 86.5604L114.25 85.4492L117.163 92.7439Z" fill="#FFABBA"/>
<path id="Vector_28" d="M119.472 95.6233L118.112 96.1632L117.358 94.9791L117.247 96.5064L113.64 97.9382C113.467 98.0069 113.276 98.0186 113.096 97.9717C112.916 97.9248 112.756 97.8218 112.639 97.6776C112.521 97.5334 112.453 97.3556 112.445 97.1703C112.436 96.9849 112.487 96.8016 112.59 96.6471L114.679 93.5198L114.162 92.2253L117.265 91.2029L119.472 95.6233Z" fill="#2F2E41"/>
<path id="Vector_29" d="M92.3633 90.8664H88.1404L89.3075 71.0847L88.4543 57.6763L88.4561 57.6655L91.6381 38.4452C91.8884 36.9295 92.5648 35.5158 93.5888 34.3682L93.6276 34.3247L104.277 36.9471L105.347 39.3813C109.003 41.5494 110.158 53.7753 110.205 54.2961L111.753 69.537L115.539 88.2164L112.873 89.6478L112.828 89.5592L104.411 72.8701L99.0951 55.2704L95.6908 71.1105L92.3633 90.8664Z" fill="#2F2E41"/>
<path id="Vector_30" d="M105.364 7.22878C105.189 6.08427 105.007 4.93016 104.596 3.85249C104.186 2.77482 103.524 1.76541 102.575 1.15492C101.072 0.188364 99.126 0.374779 97.4409 0.930768C96.1377 1.36075 94.8657 2.01428 93.9467 3.06494C93.0277 4.1156 92.5115 5.61479 92.8534 6.98857C94.6509 6.56514 96.4483 6.1417 98.2458 5.71826L98.049 5.85689C98.6392 6.15032 99.1546 6.57396 99.5561 7.09565C99.9575 7.61734 100.235 8.22337 100.366 8.86773C100.495 9.51993 100.476 10.1925 100.312 10.8367C100.148 11.4809 99.8422 12.0807 99.4171 12.5926C100.643 12.159 101.869 11.7255 103.095 11.2919C103.851 11.0242 104.661 10.7159 105.11 10.0294C105.63 9.2335 105.509 8.1786 105.364 7.22878Z" fill="#2F2E41"/>
<path id="Path 2960" d="M0.258896 97.9526H135.741C135.81 97.9526 135.876 97.9254 135.924 97.877C135.973 97.8285 136 97.7629 136 97.6944C136 97.626 135.973 97.5603 135.924 97.5119C135.876 97.4635 135.81 97.4363 135.741 97.4363H0.258896C0.190231 97.4363 0.124383 97.4635 0.0758295 97.5119C0.0272762 97.5603 0 97.626 0 97.6944C0 97.7629 0.0272762 97.8285 0.0758295 97.877C0.124383 97.9254 0.190231 97.9526 0.258896 97.9526Z" fill="#8B8B8B"/>
</g>
<defs>
<clipPath id="clip0_1512_12047">
<rect width="136" height="98" fill="white"/>
</clipPath>
</defs>
</svg>
